# xmcd
#
# Track frame offsets: 
#        150
#        14572
#        27332
#        41794
#        55862
#        68871
#        80296
#        94864
#        107994
#        120850
#        133328
#        147433
#        162536
#        176483
#        191433
#        204377
#        216867
#        230737
#
# Disc length: 3250 seconds
#
# Revision: 1
# Processed by: cddbd v1.5.2PL0 Copyright (c) Steve Scherf et al.
# Submitted via: ExactAudioCopy v0.95b2
#
DISCID=090cb012
DTITLE=Ma Rainey - The Essential Ma Rainey Disc 1
DYEAR=2001
DGENRE=Blues
TTITLE0=Ma Rainey's Black Bottom
TTITLE1=Barrel House Blues
TTITLE2=See See Rider Blues
TTITLE3=These All Night Blues
TTITLE4=Rough And Tumble Blues
TTITLE5=Black Cat Hoot Owl Blues
TTITLE6=Daddy Goodbye Blues
TTITLE7=Stack O'Lee Blues
TTITLE8=Blues Oh Blues
TTITLE9=Traveling Blues
TTITLE10=Ice Bag Papa
TTITLE11=Black Eye Blues
TTITLE12=Ma and Pa Poorhouse Blues
TTITLE13=Ma Rainey's Mystery Record
TTITLE14=Bessemer Bound Blues
TTITLE15=Lawd Sent Me A Man Blues
TTITLE16=Those Dogs Of Mine
TTITLE17=Night Time Blues
EXTD=william hale
EXTT0=
EXTT1=
EXTT2=
EXTT3=
EXTT4=
EXTT5=
EXTT6=
EXTT7=
EXTT8=
EXTT9=
EXTT10=
EXTT11=
EXTT12=
EXTT13=
EXTT14=
EXTT15=
EXTT16=
EXTT17=
PLAYORDER=
